<?xml version="1.0" encoding="UTF-8" standalone="no"?>
<svg
   width="25"
   height="8"
   fill="currentColor"
   class="bi bi-arrow-up-left-square-fill"
   viewBox="0 0 25 8"
   version="1.1"
   id="svg4"
   sodipodi:docname="com.svg"
   inkscape:version="1.2 (dc2aeda, 2022-05-15)"
   xmlns:inkscape="http://www.inkscape.org/namespaces/inkscape"
   xmlns:sodipodi="http://sodipodi.sourceforge.net/DTD/sodipodi-0.dtd"
   xmlns="http://www.w3.org/2000/svg"
   xmlns:svg="http://www.w3.org/2000/svg">
  <defs
     id="defs8" />
  <sodipodi:namedview
     id="namedview6"
     pagecolor="#505050"
     bordercolor="#eeeeee"
     borderopacity="1"
     inkscape:showpageshadow="0"
     inkscape:pageopacity="0"
     inkscape:pagecheckerboard="0"
     inkscape:deskcolor="#505050"
     showgrid="false"
     inkscape:zoom="10.895196"
     inkscape:cx="7.755712"
     inkscape:cy="8.8112231"
     inkscape:window-width="1366"
     inkscape:window-height="656"
     inkscape:window-x="0"
     inkscape:window-y="25"
     inkscape:window-maximized="0"
     inkscape:current-layer="svg4" />
  <g
     aria-label=".BZ"
     id="text539"
     style="font-size:10.7331px;line-height:0;font-family:Roboto;-inkscape-font-specification:Roboto;letter-spacing:-0.708709px;display:none;fill:#4285f4;fill-opacity:1;stroke-width:0.380303;stroke-opacity:0.585859"
     sodipodi:insensitive="true">
    <path
       d="m 6.2620999,6.0727095 q 0.4192617,0 0.6970226,0.2515571 0.2777609,0.2463162 0.2777609,0.6341333 0,0.3878171 -0.2777609,0.6393741 -0.2777609,0.2463163 -0.6970226,0.2463163 -0.4245025,0 -0.7022633,-0.251557 -0.2725202,-0.2515571 -0.2725202,-0.6341334 0,-0.3825763 0.2725202,-0.6341333 0.2777608,-0.2515571 0.7022633,-0.2515571 z"
       style="font-weight:900;-inkscape-font-specification:'Roboto Heavy';fill:#4285f4;fill-opacity:1"
       id="path2233" />
    <path
       d="M 7.7859597,7.7864418 V 0.15587857 h 2.7409233 q 1.472657,0 2.23781,0.53979946 0.770393,0.53979947 0.770393,1.56699067 0,0.5922072 -0.27252,1.0114689 -0.27252,0.4192617 -0.801838,0.618411 0.597448,0.1572232 0.917135,0.5869664 0.319687,0.4297433 0.319687,1.0481543 0,1.1215251 -0.712745,1.6875284 -0.707504,0.5607626 -2.101549,0.5712441 z M 9.6254704,4.5424043 v 1.8290292 h 1.2053776 q 0.497873,0 0.765153,-0.2253532 0.267279,-0.2305939 0.267279,-0.6446149 0,-0.9538204 -0.94858,-0.9590611 z m 0,-1.2053775 h 0.9590616 q 0.602688,-0.00524 0.859486,-0.2201124 0.256798,-0.2148716 0.256798,-0.6341333 0,-0.482151 -0.277761,-0.6917818 Q 11.145294,1.5761276 10.526883,1.5761276 H 9.6254704 Z"
       style="font-weight:900;-inkscape-font-specification:'Roboto Heavy';fill:#4285f4;fill-opacity:1"
       id="path2235" />
    <path
       d="m 16.065174,6.3714335 h 3.647577 V 7.7864418 H 13.769716 V 6.8168991 L 17.406811,1.5761276 H 13.748753 V 0.15587857 h 5.927312 V 1.0992174 Z"
       style="font-weight:900;-inkscape-font-specification:'Roboto Heavy';fill:#4285f4;fill-opacity:1"
       id="path2237" />
  </g>
  <g
     aria-label=".COM"
     id="text2231"
     style="font-size:10.7331px;line-height:0;font-family:Roboto;-inkscape-font-specification:Roboto;letter-spacing:-0.708709px;display:inline;fill:#4285f4;stroke-width:0.380303;stroke-opacity:0.585859;fill-opacity:1">
    <path
       d="m 1.5879538,6.1041541 q 0.4192617,0 0.6970226,0.251557 0.2777608,0.2463163 0.2777608,0.6341334 0,0.3878171 -0.2777608,0.6393741 -0.2777609,0.2463162 -0.6970226,0.2463162 -0.4245025,0 -0.70226342,-0.251557 -0.27252012,-0.251557 -0.27252012,-0.6341333 0,-0.3825764 0.27252012,-0.6341334 0.27776092,-0.251557 0.70226342,-0.251557 z"
       style="font-weight:900;-inkscape-font-specification:'Roboto Heavy';fill:#4285f4;fill-opacity:1"
       id="path2240" />
    <path
       d="M 9.2854423,5.234186 Q 9.2487569,6.0307833 8.855699,6.6439535 8.4626411,7.251883 7.7498962,7.5872924 7.0423921,7.9227018 6.1304978,7.9227018 q -1.5041014,0 -2.3688287,-0.9800243 Q 2.8969419,5.9626533 2.8969419,4.1755502 V 3.7982146 q 0,-1.121525 0.387817,-1.9600485 0.3930579,-0.84376418 1.1267659,-1.2997113 0.733708,-0.46118788 1.69801,-0.46118788 1.3888044,0 2.2325686,0.733708 0.8437642,0.72846728 0.9590612,2.01245628 h -1.83427 Q 7.4459315,2.1264086 7.1157629,1.8224438 6.7855943,1.5184791 6.1095348,1.5184791 q -0.6865411,0 -1.0062282,0.5135956 -0.319687,0.5135956 -0.3354093,1.6403614 v 0.5397995 q 0,1.2210997 0.3039647,1.7451769 0.3092055,0.5240771 1.0586358,0.5240771 0.6341334,0 0.9695428,-0.2987239 Q 7.4354499,5.8840417 7.456413,5.234186 Z"
       style="font-weight:900;-inkscape-font-specification:'Roboto Heavy';fill:#4285f4;fill-opacity:1"
       id="path2242" />
    <path
       d="m 15.908572,4.1598279 q 0,1.1162843 -0.414021,1.9757708 -0.41402,0.8594865 -1.179173,1.3259152 -0.759912,0.4611879 -1.734695,0.4611879 -0.974784,0 -1.729455,-0.4454656 Q 10.096557,7.0265299 9.6720544,6.1932472 9.2527927,5.3599645 9.2318296,4.2803656 V 3.8506224 q 0,-1.1215251 0.4087802,-1.9757709 0.4140212,-0.8594865 1.1791732,-1.32591515 0.770394,-0.46642866 1.750418,-0.46642866 0.969543,0 1.729455,0.46118788 0.759911,0.46118793 1.179173,1.31543363 0.424503,0.849005 0.429743,1.949567 z M 14.037617,3.8401408 q 0,-1.1372474 -0.382576,-1.7242138 -0.377336,-0.5922072 -1.08484,-0.5922072 -1.383564,0 -1.462175,2.0753455 l -0.0052,0.5607626 q 0,1.1215251 0.372095,1.7242138 0.372095,0.6026887 1.105803,0.6026887 0.697022,0 1.074358,-0.5922072 0.377335,-0.5922071 0.382576,-1.7032507 z"
       style="font-weight:900;-inkscape-font-specification:'Roboto Heavy';fill:#4285f4;fill-opacity:1"
       id="path2244" />
    <path
       d="M 18.564439,0.18732312 20.26769,5.4962246 21.9657,0.18732312 h 2.421236 V 7.8178864 H 22.542185 V 6.0360241 l 0.178186,-3.647577 -1.844752,5.4294393 H 19.65976 l -1.849992,-5.43468 0.178186,3.6528177 V 7.8178864 H 16.148443 V 0.18732312 Z"
       style="font-weight:900;-inkscape-font-specification:'Roboto Heavy';fill:#4285f4;fill-opacity:1"
       id="path2246" />
  </g>
</svg>
