<?xml version="1.0" encoding="UTF-8" standalone="no"?>
<svg
   width="16"
   height="8"
   fill="currentColor"
   class="bi bi-terminal-fill"
   viewBox="0 0 16 8"
   version="1.1"
   id="svg4"
   sodipodi:docname="icon.svg"
   inkscape:version="1.2 (dc2aeda, 2022-05-15)"
   xmlns:inkscape="http://www.inkscape.org/namespaces/inkscape"
   xmlns:sodipodi="http://sodipodi.sourceforge.net/DTD/sodipodi-0.dtd"
   xmlns="http://www.w3.org/2000/svg"
   xmlns:svg="http://www.w3.org/2000/svg">
  <defs
     id="defs8" />
  <sodipodi:namedview
     id="namedview6"
     pagecolor="#505050"
     bordercolor="#eeeeee"
     borderopacity="1"
     inkscape:showpageshadow="0"
     inkscape:pageopacity="0"
     inkscape:pagecheckerboard="0"
     inkscape:deskcolor="#505050"
     showgrid="false"
     inkscape:zoom="38.644941"
     inkscape:cx="7.698291"
     inkscape:cy="5.3047047"
     inkscape:window-width="1366"
     inkscape:window-height="656"
     inkscape:window-x="0"
     inkscape:window-y="25"
     inkscape:window-maximized="0"
     inkscape:current-layer="text717" />
  <g
     aria-label="ftw."
     id="text717"
     style="font-weight:bold;font-size:10.0333px;font-family:Roboto;-inkscape-font-specification:'Roboto Bold';letter-spacing:-0.11px;fill:#ffffff;stroke-width:0.0522568">
    <path
       d="M 1.0038255,7.7812948 V 3.5191018 H 0.21507481 V 2.4804984 H 1.0038255 V 2.0297838 q 0,-0.8916312 0.5095035,-1.38153848 Q 2.0277316,0.153439 2.9487572,0.153439 q 0.2939444,0 0.7201637,0.0979815 L 3.6542237,1.3488127 Q 3.4778571,1.304721 3.2231053,1.304721 q -0.7985488,0 -0.7985488,0.7495581 V 2.4804984 H 3.4778571 V 3.5191018 H 2.4245565 v 4.262193 z"
       id="path724"
       style="fill:#cc0000;fill-opacity:1" />
    <path
       d="M 5.7977971,1.1773451 V 2.4804984 H 6.7041255 V 3.5191018 H 5.7977971 v 2.6454991 q 0,0.2939444 0.1126786,0.4213202 0.1126787,0.1273759 0.4311184,0.1273759 0.2351555,0 0.4164212,-0.034293 v 1.0728969 q -0.4164212,0.1273759 -0.8573377,0.1273759 -1.489318,0 -1.5187125,-1.5040153 V 3.5191018 H 3.6079117 V 2.4804984 H 4.3819651 V 1.1773451 Z"
       id="path726"
       style="fill:#3cba54;fill-opacity:1" />
    <path
       d="m 11.992903,5.8559593 0.695669,-3.3754609 h 1.366841 L 12.703269,7.7812948 H 11.517693 L 10.513384,4.4450265 9.5090737,7.7812948 H 8.3283973 L 6.9762533,2.4804984 H 8.3430945 L 9.0338637,5.8510603 10.00388,2.4804984 h 1.023906 z"
       id="path728"
       style="fill:#4885ed;fill-opacity:1" />
    <path
       d="m 14.111981,7.0856265 q 0,-0.338036 0.225358,-0.5486961 0.230256,-0.2106601 0.573191,-0.2106601 0.347834,0 0.573192,0.2106601 0.230256,0.2106601 0.230256,0.5486961 0,0.333137 -0.225357,0.5437971 -0.225357,0.205761 -0.578091,0.205761 -0.347834,0 -0.573191,-0.205761 -0.225358,-0.2106601 -0.225358,-0.5437971 z"
       id="path730"
       style="fill:#f4c20d;fill-opacity:1" />
  </g>
</svg>
