<?xml version="1.0" encoding="UTF-8" standalone="no"?>
<svg
   width="30"
   height="30"
   fill="currentColor"
   class="bi bi-terminal-fill"
   viewBox="0 0 30 30"
   version="1.1"
   id="svg4"
   sodipodi:docname="print.svg"
   inkscape:version="1.2 (dc2aeda, 2022-05-15)"
   xml:space="preserve"
   xmlns:inkscape="http://www.inkscape.org/namespaces/inkscape"
   xmlns:sodipodi="http://sodipodi.sourceforge.net/DTD/sodipodi-0.dtd"
   xmlns="http://www.w3.org/2000/svg"
   xmlns:svg="http://www.w3.org/2000/svg"><defs
     id="defs8" /><sodipodi:namedview
     id="namedview6"
     pagecolor="#505050"
     bordercolor="#eeeeee"
     borderopacity="1"
     inkscape:showpageshadow="0"
     inkscape:pageopacity="0"
     inkscape:pagecheckerboard="0"
     inkscape:deskcolor="#505050"
     showgrid="false"
     inkscape:zoom="11.052801"
     inkscape:cx="14.023594"
     inkscape:cy="17.280687"
     inkscape:window-width="1366"
     inkscape:window-height="656"
     inkscape:window-x="0"
     inkscape:window-y="25"
     inkscape:window-maximized="0"
     inkscape:current-layer="text10565"
     showguides="false" /><g
     aria-label="Tap in."
     id="text10565"
     style="font-size:10.6667px;font-family:Roboto;-inkscape-font-specification:Roboto;text-align:center;text-anchor:middle;fill:#010101;stroke-width:10;stroke-opacity:0"
     transform="translate(-24.469785,-5.02863)"><path
       id="path10867"
       style="fill:#0b5cd5;fill-opacity:1;stroke-width:13.9603;stroke-opacity:0"
       d="M 39.469785,5.353917 A 14.674261,14.674261 0 0 0 24.795072,20.02863 14.674261,14.674261 0 0 0 36.167839,34.288896 c 0.256946,-0.258911 0.638457,-0.563714 1.177903,-0.93796 1.694407,-1.175519 3.346613,-3.176471 4.081763,-4.943376 1.058889,-2.545008 1.058426,-5.956609 -0.0027,-8.485268 -0.566544,-1.350058 -0.636835,-1.439263 -1.300601,-1.65779 -0.879708,-0.289621 -1.68519,0.08576 -2.034065,0.948866 -0.212667,0.52614 -0.163037,0.896741 0.27539,2.121317 0.683363,1.908714 0.701712,3.558172 0.05999,5.338739 -0.681055,1.889678 -1.755634,3.20315 -3.252867,3.978149 -1.064873,0.551135 -1.185697,0.572977 -1.417846,0.239944 -0.308723,-0.442889 -0.05163,-0.838545 1.025211,-1.570538 1.59515,-1.084325 2.677598,-3.210181 2.69391,-5.292385 0.0042,-0.533773 -0.212702,-1.560764 -0.482613,-2.282188 -0.859114,-2.296238 -0.466804,-3.721387 1.265155,-4.583462 1.229872,-0.612194 2.203806,-0.541919 3.192881,0.226309 0.523953,0.406964 0.775647,0.802599 1.281516,2.009527 2.289036,5.461276 0.283706,11.873888 -4.711614,15.200951 a 14.674261,14.674261 0 0 0 1.450566,0.103612 c 1.329009,-1.00141 2.671033,-2.57134 3.672769,-4.297165 0.659595,-1.136376 0.913094,-1.401658 1.723229,-1.810481 1.175646,-0.593275 1.817372,-0.667188 3.091995,-0.354462 1.155006,0.283379 2.354289,0.337915 3.522805,0.169051 a 14.674261,14.674261 0 0 0 0.700742,-1.117919 c -2.214241,0.558705 -4.569931,0.149083 -6.317597,-1.101556 -0.842656,-0.603007 -0.976421,-0.774501 -0.89706,-1.120644 0.159518,-0.695766 0.640296,-0.730506 1.518732,-0.109072 1.632855,1.155137 3.757178,1.424848 5.998581,0.760728 0.213298,-0.0632 0.381481,-0.105851 0.539874,-0.144511 A 14.674261,14.674261 0 0 0 54.144498,20.02863 14.674261,14.674261 0 0 0 39.469785,5.353917 Z m -0.02726,4.2562677 c 1.931687,-0.038002 3.904506,0.4733043 5.682293,1.6196163 1.784679,1.150757 2.533371,2.069544 4.228999,5.188774 1.409745,2.593313 1.575912,2.983619 1.442388,3.389198 -0.156901,0.476576 -0.22858,0.537481 -0.678932,0.575319 -0.197046,0.01656 -0.595941,-0.620826 -1.466925,-2.3449 -1.468196,-2.906312 -2.293738,-4.060739 -3.680949,-5.145148 -2.016276,-1.576155 -4.727464,-2.21402 -7.203751,-1.693235 -2.110413,0.443839 -4.310823,1.965278 -5.592315,3.863632 -0.679909,1.007191 -1.399675,3.329933 -1.404213,4.534382 -0.0048,1.244264 0.341442,3.007974 0.747095,3.811826 0.388512,0.769885 0.158182,1.356984 -0.520784,1.327868 -0.468391,-0.02009 -0.883766,-0.757533 -1.29515,-2.293094 -0.451525,-1.685385 -0.399025,-3.707815 0.144512,-5.565048 1.302362,-4.450091 5.348019,-7.1855981 9.597732,-7.2691903 z m 0.136336,2.3857993 c 1.424259,0.0027 2.918765,0.402908 4.362605,1.292421 1.273896,0.784817 2.230762,2.071846 3.708215,4.984277 1.534434,3.024868 1.691002,3.180119 3.010197,2.99929 0.984054,-0.134884 1.45687,0.102642 1.327869,0.665298 -0.124401,0.542572 -0.670056,0.787682 -1.772309,0.796175 -0.569966,0.0043 -1.196243,-0.180817 -1.65779,-0.490792 -0.672305,-0.451529 -0.871274,-0.75702 -2.140403,-3.271954 -1.597769,-3.166179 -2.324715,-4.073621 -3.852726,-4.815226 -2.132028,-1.034759 -3.873517,-1.012482 -6.031301,0.08179 -2.876389,1.458726 -4.103803,4.879517 -2.87932,8.029921 0.770946,1.983522 0.577247,3.1659 -0.689837,4.209914 -1.15964,0.955484 -2.019978,0.06403 -0.976133,-1.011579 0.852628,-0.878582 0.887407,-1.168238 0.329922,-2.732082 -2.036639,-5.713129 2.174374,-10.747308 7.261011,-10.737462 z m 0.01636,2.391253 c 0.563154,-0.009 1.130236,0.07343 1.676877,0.256303 0.503292,0.168375 1.310554,0.613566 1.794121,0.989766 0.812267,0.631918 0.992277,0.90797 2.380346,3.645502 1.254669,2.474504 1.617903,3.05628 2.194936,3.520076 1.19773,0.962688 2.649709,1.154213 4.479849,0.594406 0.555819,-0.17001 1.067498,0.207091 0.954321,0.700744 -0.111562,0.486548 -0.727223,0.799649 -1.990439,1.014304 -1.18023,0.200563 -2.840555,-0.195006 -4.032683,-0.962499 -0.887993,-0.571689 -0.970229,-0.691453 -2.685729,-3.869086 -1.870747,-3.465199 -2.126614,-3.773559 -3.528257,-4.280805 -0.339978,-0.123033 -1.063336,-0.202275 -1.60871,-0.174504 -1.214335,0.06183 -2.435429,0.798265 -3.08927,1.865012 -0.612085,0.998625 -0.744555,2.685248 -0.283569,3.601877 0.886897,1.763386 0.837771,3.989382 -0.12542,5.622307 -0.509636,0.863995 -0.793614,1.130525 -1.712323,1.611437 -1.000813,0.523905 -1.121491,0.541213 -1.352407,0.20995 -0.293087,-0.420461 -0.06226,-0.819556 0.85616,-1.475104 1.565929,-1.11772 1.948146,-2.959458 1.090653,-5.267848 -0.564868,-1.520626 -0.609539,-1.997409 -0.31629,-3.462816 0.47548,-2.376034 2.857505,-4.099898 5.29784,-4.139022 z m 0,4.757966 c 0.459384,-0.04653 1.131988,1.267839 1.483286,2.895679 0.875971,4.059101 -0.940124,8.364267 -4.485305,10.63385 -0.900191,0.576287 -1.149615,0.66302 -1.488738,0.515333 -0.734534,-0.319883 -0.453888,-0.868594 0.9625,-1.881374 3.306776,-2.364494 4.631154,-6.486127 3.266501,-10.159416 -0.505172,-1.359793 -0.429486,-1.934057 0.261756,-2.004072 z m 7.001981,10.39118 c -0.955909,0.03995 -1.627671,0.502247 -2.15131,1.445114 -0.66535,1.198029 -1.62252,2.471165 -2.598476,3.509169 A 14.674261,14.674261 0 0 0 43.4125,34.149839 c 0.739083,-0.878163 1.379214,-1.762441 1.68233,-2.374895 0.652086,-1.317557 1.231998,-1.545356 2.862959,-1.123371 0.39391,0.101922 0.868345,0.16759 1.393307,0.199045 a 14.674261,14.674261 0 0 0 0.927055,-0.927054 c -0.832898,-0.0088 -1.719797,-0.105451 -2.625744,-0.289022 -0.387086,-0.07843 -0.736569,-0.111471 -1.055205,-0.09815 z m 0.141786,2.32854 -0.436261,0.717104 c -0.119403,0.196109 -0.25163,0.399498 -0.392635,0.608038 a 14.674261,14.674261 0 0 0 1.905913,-1.123372 z" /></g></svg>
